<svg width="14" height="14" viewBox="0 0 14 14" fill="none" xmlns="http://www.w3.org/2000/svg">
<g clip-path="url(#clip0_261_28)">
<path d="M7 3.80808V1.75008C7 1.59537 7.06146 1.447 7.17085 1.3376C7.28025 1.22821 7.42862 1.16675 7.58333 1.16675" stroke="#114A70" stroke-width="2.33333" stroke-linecap="round" stroke-linejoin="round"/>
<path d="M10.6381 12.25C12.061 10.6409 12.8423 8.56463 12.8332 6.41667C12.8332 5.74103 12.6376 5.07983 12.2701 4.51289C11.9026 3.94595 11.3788 3.49751 10.762 3.22169C10.1452 2.94586 9.46181 2.85445 8.79423 2.9585C8.12664 3.06254 7.50344 3.35758 6.99985 3.808C6.49626 3.35758 5.87306 3.06254 5.20547 2.9585C4.53789 2.85445 3.85446 2.94586 3.23768 3.22169C2.62091 3.49751 2.09715 3.94595 1.72963 4.51289C1.3621 5.07983 1.16653 5.74103 1.16652 6.41667C1.16284 8.56365 1.94344 10.6381 3.3616 12.25C3.62276 12.5422 3.97443 12.7382 4.36027 12.8068C4.74611 12.8753 5.14379 12.8124 5.4896 12.628C5.95438 12.38 6.47306 12.2503 6.99985 12.2503C7.52664 12.2503 8.04532 12.38 8.5101 12.628C8.85591 12.8124 9.25359 12.8753 9.63943 12.8068C10.0253 12.7382 10.3769 12.5422 10.6381 12.25Z" stroke="#114A70" stroke-width="2.33333" stroke-linecap="round" stroke-linejoin="round"/>
</g>
<defs>
<clipPath id="clip0_261_28">
<rect width="14" height="14" fill="white"/>
</clipPath>
</defs>
</svg>
